<svg xmlns="http://www.w3.org/2000/svg" viewBox="0 0 48 48"><path d="M44 24c0 11.044-8.956 20-20 20S4 35.044 4 24 12.956 4 24 4s20 8.956 20 20z" fill="#00acc1"/><path d="M40 24c0 8.838-7.162 16-16 16S8 32.838 8 24 15.163 8 24 8s16 7.163 16 16z" fill="#eee"/><path d="M22.484 21.414a2.986 2.986 0 0 0-1.059 4.113 3.049 3.049 0 0 0 4.148 1.082 2.98 2.98 0 0 0 1.055-4.113 3.045 3.045 0 0 0-4.144-1.082" fill="#263238"/><path d="M35.301 17.445l-9.375 7.793-2.059-3.461 11.434-4.332z" fill="#263238"/><path d="M8.051 25.02h3.952V23H8.05c-.02.332-.05.662-.05 1 0 .344.03.681.051 1.02zm2.349 7.378l3.491-1.859-.949-1.781-3.496 1.862c.28.615.6 1.207.954 1.778z" fill="#ff1744"/><path d="M17.176 14.082l1.754-1-1.958-3.439c-.607.298-1.197.623-1.758.993l1.962 3.446zm-7.502 2.824l3.427 1.98 1.008-1.75-3.436-1.985c-.372.56-.698 1.15-.999 1.755zM35.996 25h3.953c.021-.332.051-.662.051-1 0-.344-.03-.681-.051-1.02h-3.952V25zm2.674 5.379l-3.529-1.813-.922 1.797 3.52 1.808c.343-.577.661-1.171.931-1.792zM31.211 9.731l-2.008 3.414 1.742 1.023 2.013-3.427a15.987 15.987 0 0 0-1.747-1.01zM25 8.05c-.332-.02-.662-.05-1-.05-.344 0-.681.03-1.02.051v3.952H25V8.05z" fill="#90a4ae"/><path d="M23.512 23.145a1 1 0 0 0-.352 1.371c.285.48.906.641 1.383.359a.996.996 0 0 0 .355-1.371 1.022 1.022 0 0 0-1.386-.359" fill="#4dd0e1"/></svg>