<svg xmlns="http://www.w3.org/2000/svg" viewBox="0 0 48 48"><path fill="#b0bec5" d="M23.1 44.4l-5.3-14.2 1.8-.7 3.4 9V27h2v10.4l3-9.7 2 .6-5 16-1-.3z"/><path d="M26 30h-1l-1 1-1-1h-1l1-3.8h2l1 3.8z" fill="#ffa000"/><path d="M21.6 31.8l-.9.4-.6 1.3-1.3-.6-.9.4-.5-3.9 1.9-.8 2.3 3.2z" fill="#558b2f"/><path d="M22 15.4c2 4.6 1.3 13.2-3.2 15.2s-11.1-3.4-13.1-8 .1-9.9 4.6-11.9c4.5-1.9 9.7.1 11.7 4.7z" fill="#7cb342"/><path d="M28.6 26.4l1.9.8L30 31l-.9-.4-1.3.6-.6-1.3-.9-.4 2.3-3.1z" fill="#dd2c00"/><path d="M25.1 11.7c-2.1 4.8-1.4 13.8 3.3 15.9 4.7 2.1 11.7-3.6 13.8-8.3s-.1-10.4-4.8-12.5c-4.7-2.1-10.2.1-12.3 4.9z" fill="#ff3d00"/><path d="M20.6 29.2c.4-.5.8-1.1 1.1-1.7C17.3 25.6 14 18.7 14 14c0-1.4.3-2.7.8-3.9h-.5c-.6 0-1.1 0-1.7.1-.4 1.1-.6 2.4-.6 3.8 0 5.3 3.5 12.8 8.6 15.2z" fill="#558b2f"/><path d="M8.9 23.6c-1.9-4.2.1-9.2 4.4-11.1.5-.2 1-.4 1.5-.5-1.2-.1-2.5 0-3.7.6-3.7 1.6-5.3 5.8-3.7 9.5.5 1.2 1.3 2.2 2.3 2.9-.3-.4-.6-.9-.8-1.4z" fill="#f1f8e9"/><path d="M34 14c0 5.5-4.5 14-10 14s-10-8.5-10-14S18.5 4 24 4s10 4.5 10 10z" fill="#ffc107"/><path d="M36 14c0-3.1-1.2-5.8-3.1-8-.8.1-1.6.2-2.3.5C32.7 8.4 34 11 34 14c0 4.3-2.8 10.5-6.6 12.9.3.3.7.5 1 .6.3.1.7.3 1.1.3 4-3.1 6.5-9.2 6.5-13.8z" fill="#dd2c00"/><path d="M17 16.3c0-5.2 4.2-9.4 9.4-9.4.6.1 1.1.1 1.7.2-1.2-.7-2.5-1.1-4-1.1-4.4 0-8 3.6-8 8 0 1.4.4 2.8 1.1 4-.1-.5-.2-1.1-.2-1.7z" fill="#fffde7"/></svg>