<svg xmlns="http://www.w3.org/2000/svg" viewBox="0 0 48 48"><path fill="#78909C" d="M5 29v10a4 4 0 0 0 4 4h28a4 4 0 0 0 4-4V29H5z"/><path fill="#455A64" d="M41 29a4 4 0 0 1-4 4H9a4 4 0 0 1-4-4l3-12c.219-2.094 1.791-4 4-4h22c2.209 0 3.688 1.75 4 4l3 12z"/><circle fill="#64DD17" cx="34" cy="38" r="2"/><g fill="#BBDEFB"><ellipse cx="24.525" cy="10.384" rx="5.525" ry="5.384"/><ellipse cx="25.75" cy="19.566" rx="4.55" ry="4.433"/><ellipse cx="19.55" cy="15.434" rx="4.55" ry="4.434"/><ellipse cx="38.1" cy="15.134" rx="3.9" ry="3.801"/><ellipse cx="32.9" cy="18.2" rx="3.9" ry="3.801"/><ellipse cx="33.225" cy="12.116" rx="4.225" ry="4.116"/><ellipse cx="28.45" cy="14.566" rx="4.55" ry="4.434"/></g></svg>