<svg xmlns="http://www.w3.org/2000/svg" viewBox="0 0 48 48"><g fill="#e89531"><path d="M26.25 37.329l-2.088-4.592 7.725-3.584a2.489 2.489 0 0 1 3.315 1.242 2.536 2.536 0 0 1-1.229 3.349l-7.723 3.585z"/><path d="M30.809 37.789l-2.088-4.593 7.726-3.584c1.255-.582 2.739-.026 3.315 1.242s.025 2.768-1.229 3.35l-7.724 3.585z"/><path d="M27.045 37.063c.271.108 2.688 1.004 3.599-1.313.062-.157.116-.385.151-.645l2.006-.871c.068.841-.06 1.648-.301 2.264-1.326 3.368-4.632 3.068-6.133 2.463l-9.343-3.635.614-1.924 9.407 3.661z"/><path d="M17.727 35.295a.995.995 0 0 1-1.313-.528 1.015 1.015 0 0 1 .522-1.328.996.996 0 0 1 1.314.526 1.018 1.018 0 0 1-.523 1.33z"/></g><path d="M44.114 32.063a2.491 2.491 0 0 0-3.284-1.32l-8.029 3.492c.068.842-.06 1.649-.301 2.265-1.326 3.368-4.632 3.067-6.133 2.463l-9.343-3.635.003-.009a.992.992 0 0 1-.614-.553 1.015 1.015 0 0 1 .522-1.328.964.964 0 0 1 .7-.023l.003-.01.053.021.018.007 9.335 3.631c.271.109 2.688 1.004 3.599-1.312.062-.157.116-.385.151-.644l.002-.002c.217-1.365-1.013-2.229-1.746-2.523l-11.927-4.727c-3.81-1.642-12.805 2.354-12.805 2.354l3.369 8.352 3.72-1.617 13.106 5.271a3.4 3.4 0 0 0 2.171.12l.038-.007.037-.013c.146-.033.291-.076.434-.139l15.613-6.795a2.535 2.535 0 0 0 1.308-3.319z" fill="#ffb74d"/><path d="M36 16c0 5.5-4.5 10-10 10s-10-4.5-10-10S20.5 6 26 6s10 4.5 10 10" fill="#4caf50"/><path d="M29.4 18.5c0 2.5-2.4 2.8-2.8 2.8v1.4h-1v-1.4c-.4 0-3-.3-3-3.3h2c0 .3 0 1.7 1.5 1.7 1.3 0 1.3-1 1.3-1.2 0-2.2-4.5-1.3-4.5-4.8 0-2.1 1.9-2.8 2.8-2.8V9.4h1.1v1.5c.7.1 2.6.6 2.6 3.2h-2c0-.6-.1-1.7-1.3-1.7-1.1.1-1.1 1.1-1.1 1.3 0 2.1 4.4 1.3 4.4 4.8" fill="#e8f5e9"/></svg>