<svg xmlns="http://www.w3.org/2000/svg" viewBox="0 0 48 48"><circle cx="24" cy="37" r="3" fill="#3949ab"/><path fill="#3949ab" d="M2 10h44v28H2z"/><path d="M4 8h13c4 0 6 0 6 2v28c0-2-4-2-6-2H4V8zm40 28H32c-2 0-7 0-7 2V10c0-2 3-2 7-2h12v28z" fill="#efebe9"/><path fill="#bcaaa4" d="M23 10h2v28h-2zm-6 16h3v2h-3zm-8-6h2v2H9zm0-8h2v2H9zm0 4h2v2H9zm4-4h7v2h-7zm0 4h5v2h-5zm0 4h5v2h-5zM9 30h2v2H9zm6 0h5v2h-5z"/><path d="M34.491 21.105s-1.701-.509-1.701-1.675c0-1.361 1.151-1.349 1.394-1.349.449 0 1.475.243 1.475 1.918H38c0-3.25-2.542-3.542-3.333-3.66v-1.674h-1.333v1.693c-.867.15-2.887.743-2.887 3.064 0 2.479 2.463 3.159 2.667 3.244 1.428.596 2.545.776 2.545 2.055 0 1.291-1.286 1.325-1.54 1.325-.222 0-1.775.057-1.775-2.047H30c0 3.287 2.581 3.707 3.333 3.791v1.543h1.333v-1.535c.487-.046 3.334-.396 3.334-3.094 0-2.594-2.985-3.399-3.509-3.599z" fill="#2e7d32"/></svg>